<svg width="21" height="35" viewBox="0 0 21 35" fill="none" xmlns="http://www.w3.org/2000/svg">
<path d="M16.349 33.8041L1.25418 18.7541C1.07502 18.575 0.948405 18.3809 0.87435 18.1718C0.7991 17.9628 0.761475 17.7389 0.761475 17.5C0.761475 17.2611 0.7991 17.0371 0.87435 16.8281C0.948405 16.6191 1.07502 16.425 1.25418 16.2458L16.349 1.15101C16.767 0.732953 17.2896 0.523926 17.9167 0.523926C18.5438 0.523926 19.0813 0.747884 19.5292 1.1958C19.9771 1.64372 20.2011 2.16629 20.2011 2.76351C20.2011 3.36073 19.9771 3.8833 19.5292 4.33122L6.36043 17.5L19.5292 30.6687C19.9472 31.0868 20.1563 31.6016 20.1563 32.2131C20.1563 32.8259 19.9323 33.3562 19.4844 33.8041C19.0365 34.2521 18.5139 34.476 17.9167 34.476C17.3195 34.476 16.7969 34.2521 16.349 33.8041Z" fill="black"/>
</svg>
