<svg width="22" height="37" viewBox="0 0 22 37" fill="none" xmlns="http://www.w3.org/2000/svg">
<path d="M4.89062 35.5625L20.6875 19.8125C20.875 19.625 21.0075 19.4219 21.085 19.2031C21.1638 18.9844 21.2031 18.75 21.2031 18.5C21.2031 18.25 21.1638 18.0156 21.085 17.7969C21.0075 17.5781 20.875 17.375 20.6875 17.1875L4.89062 1.39062C4.45312 0.953125 3.90625 0.734375 3.25 0.734375C2.59375 0.734375 2.03125 0.96875 1.5625 1.4375C1.09375 1.90625 0.859375 2.45312 0.859375 3.07812C0.859375 3.70312 1.09375 4.25 1.5625 4.71875L15.3437 18.5L1.5625 32.2812C1.125 32.7188 0.90625 33.2575 0.90625 33.8975C0.90625 34.5387 1.14062 35.0938 1.60938 35.5625C2.07812 36.0312 2.625 36.2656 3.25 36.2656C3.875 36.2656 4.42188 36.0312 4.89062 35.5625Z" fill="black"/>
</svg>
