<svg width="35" height="35" viewBox="0 0 35 35" fill="none" xmlns="http://www.w3.org/2000/svg">
<path d="M11.6156 9.04491C11.3446 9.00546 11.0682 9.06001 10.8325 9.19949H10.8121C10.2652 9.52033 9.77232 9.92428 9.35232 10.3997C9.00232 10.8037 8.81273 11.212 8.76315 11.6057C8.73398 11.8391 8.7544 12.0753 8.82294 12.2984L8.84919 12.313C9.24294 13.4695 9.75627 14.5822 10.3834 15.6293C11.1919 17.1 12.187 18.4602 13.3438 19.6762L13.3788 19.7257L13.4342 19.7666L13.4677 19.806L13.5086 19.8409C14.7288 21.0013 16.0922 22.001 17.5656 22.816C19.25 23.7332 20.2723 24.1664 20.8863 24.3472V24.3559C21.0656 24.4114 21.229 24.4362 21.3938 24.4362C21.9167 24.3975 22.4116 24.185 22.7996 23.8324C23.2736 23.4124 23.6746 22.918 23.9867 22.3682V22.358C24.2798 21.8039 24.1807 21.2818 23.7577 20.9274C22.9082 20.1852 21.9897 19.5259 21.0146 18.9587C20.3613 18.6043 19.6977 18.8187 19.4294 19.1774L18.8563 19.9007C18.5617 20.2595 18.0279 20.2099 18.0279 20.2099L18.0134 20.2187C14.0307 19.2022 12.9675 15.1699 12.9675 15.1699C12.9675 15.1699 12.9179 14.6216 13.2869 14.3416L14.0044 13.7641C14.3486 13.4841 14.5877 12.822 14.2188 12.1687C13.6553 11.1927 12.9973 10.2744 12.2544 9.42699C12.0924 9.22756 11.8651 9.09173 11.6127 9.04345L11.6156 9.04491ZM18.3459 7.29199C18.1525 7.29199 17.967 7.36882 17.8303 7.50556C17.6935 7.64231 17.6167 7.82777 17.6167 8.02116C17.6167 8.21455 17.6935 8.40001 17.8303 8.53676C17.967 8.6735 18.1525 8.75033 18.3459 8.75033C20.1892 8.75033 21.7204 9.35262 22.9323 10.5076C23.555 11.1391 24.0406 11.8872 24.3586 12.7068C24.6779 13.5278 24.8238 14.4043 24.7859 15.2822C24.7777 15.4756 24.8468 15.6643 24.9778 15.8068C25.1088 15.9493 25.291 16.0339 25.4844 16.042C25.6778 16.0501 25.8665 15.9811 26.009 15.8501C26.1515 15.7191 26.2361 15.5368 26.2442 15.3434C26.2894 14.2635 26.1102 13.186 25.7177 12.1789C25.3236 11.167 24.726 10.2467 23.9619 9.47512L23.9473 9.46053C22.4438 8.02408 20.5421 7.29199 18.3459 7.29199Z" fill="white"/>
<path d="M18.2948 9.68896C18.1015 9.68896 17.916 9.76578 17.7792 9.90253C17.6425 10.0393 17.5657 10.2247 17.5657 10.4181C17.5657 10.6115 17.6425 10.797 17.7792 10.9337C17.916 11.0705 18.1015 11.1473 18.2948 11.1473H18.3196C19.6496 11.2421 20.618 11.6854 21.2961 12.4131C21.9917 13.1627 22.3519 14.0946 22.3242 15.2467C22.3198 15.4401 22.3923 15.6273 22.5259 15.7672C22.6595 15.9071 22.8432 15.9882 23.0366 15.9926C23.23 15.9971 23.4172 15.9245 23.5571 15.7909C23.697 15.6573 23.7781 15.4736 23.7825 15.2802C23.8175 13.7679 23.3305 12.4627 22.365 11.4215V11.4185C21.3778 10.3598 20.023 9.79979 18.3925 9.69042L18.3678 9.6875L18.2948 9.68896Z" fill="white"/>
<path d="M18.2671 12.1317C18.1696 12.1231 18.0712 12.1343 17.9781 12.1645C17.8849 12.1947 17.7987 12.2434 17.7248 12.3077C17.6508 12.3719 17.5906 12.4504 17.5477 12.5385C17.5047 12.6265 17.48 12.7223 17.4749 12.8201C17.4698 12.918 17.4844 13.0158 17.518 13.1078C17.5515 13.1999 17.6033 13.2842 17.6702 13.3558C17.737 13.4274 17.8177 13.4848 17.9072 13.5245C17.9967 13.5643 18.0934 13.5856 18.1913 13.5871C18.8009 13.6192 19.1903 13.803 19.4353 14.0494C19.6817 14.2974 19.8655 14.6955 19.899 15.3182C19.9008 15.416 19.9223 15.5125 19.9622 15.6019C20.0021 15.6913 20.0596 15.7717 20.1312 15.8384C20.2029 15.905 20.2872 15.9566 20.3792 15.99C20.4712 16.0234 20.569 16.038 20.6667 16.0328C20.7645 16.0276 20.8601 16.0028 20.9481 15.9598C21.036 15.9169 21.1144 15.8566 21.1786 15.7827C21.2428 15.7088 21.2914 15.6228 21.3216 15.5297C21.3518 15.4366 21.363 15.3384 21.3544 15.2409C21.3078 14.3659 21.0336 13.593 20.4721 13.0242C19.9078 12.4555 19.1392 12.1784 18.2671 12.1317Z" fill="white"/>
<path fill-rule="evenodd" clip-rule="evenodd" d="M10.306 3.47622C14.9465 2.43892 19.7588 2.43892 24.3993 3.47622L24.8937 3.5856C26.2503 3.88886 27.4962 4.56228 28.493 5.53105C29.4898 6.49981 30.1985 7.72598 30.5404 9.07331C31.7183 13.715 31.7183 18.5774 30.5404 23.2191C30.1985 24.5665 29.4898 25.7926 28.493 26.7614C27.4962 27.7302 26.2503 28.4036 24.8937 28.7068L24.3979 28.8162C21.4915 29.4662 18.5091 29.7111 15.5356 29.5439L11.6666 33.006C11.5208 33.1366 11.3425 33.2257 11.1505 33.2639C10.9585 33.3021 10.7597 33.288 10.575 33.2232C10.3902 33.1584 10.2263 33.0452 10.1002 32.8954C9.97415 32.7456 9.89061 32.5647 9.8583 32.3716L9.21809 28.5479C7.99044 28.1659 6.88127 27.4754 5.99659 26.5425C5.11191 25.6096 4.48128 24.4653 4.16497 23.2191C2.987 18.5774 2.987 13.715 4.16497 9.07331C4.50683 7.72598 5.21555 6.49981 6.21237 5.53105C7.2092 4.56228 8.45509 3.88886 9.81163 3.5856L10.306 3.47622ZM23.9225 5.60976C19.596 4.64261 15.1094 4.64261 10.7829 5.60976L10.287 5.7206C9.3256 5.93593 8.44265 6.41353 7.73624 7.10037C7.02984 7.78721 6.52763 8.65641 6.28538 9.61143C5.19705 13.9 5.19705 18.3925 6.28538 22.681C6.52774 23.6362 7.03017 24.5055 7.73685 25.1924C8.44353 25.8793 9.32679 26.3568 10.2885 26.5718L10.4198 26.601C10.6321 26.6485 10.8254 26.7582 10.9751 26.9162C11.1247 27.0741 11.2238 27.2731 11.2598 27.4877L11.6885 30.0514L14.4185 27.6087C14.5275 27.5109 14.6551 27.4359 14.7936 27.3883C14.9322 27.3407 15.0788 27.3215 15.225 27.3316C18.1403 27.5384 21.0701 27.3198 23.9225 26.6827L24.4168 26.5718C25.3786 26.3568 26.2618 25.8793 26.9685 25.1924C27.6752 24.5055 28.1776 23.6362 28.42 22.681C29.5079 18.3935 29.5079 13.9004 28.42 9.61143C28.1776 8.65622 27.6752 7.7869 26.9685 7.10004C26.2618 6.41319 25.3786 5.93569 24.4168 5.7206L23.9225 5.60976Z" fill="white"/>
</svg>
