<svg width="35" height="35" viewBox="0 0 35 35" fill="none" xmlns="http://www.w3.org/2000/svg">
<path d="M27.7083 17.5C27.7083 14.6562 26.7176 12.2437 24.7362 10.2623C22.7549 8.2809 20.3428 7.29069 17.5 7.29167V4.375C19.3229 4.375 21.0306 4.7216 22.6231 5.41479C24.2156 6.10799 25.601 7.04326 26.7794 8.22062C27.9577 9.39993 28.8935 10.7853 29.5867 12.3769C30.2799 13.9684 30.626 15.6761 30.625 17.5H27.7083ZM21.875 17.5C21.875 16.2847 21.4497 15.2517 20.599 14.401C19.7483 13.5503 18.7153 13.125 17.5 13.125V10.2083C19.5174 10.2083 21.2372 10.9195 22.6596 12.3419C24.0819 13.7642 24.7926 15.4836 24.7917 17.5H21.875ZM29.0938 30.625C25.9583 30.625 22.9017 29.9323 19.9237 28.5469C16.9458 27.1615 14.3087 25.3142 12.0123 23.0052C9.7159 20.6962 7.86868 18.0527 6.47063 15.0748C5.07257 12.0969 4.37403 9.04069 4.375 5.90625V5.14063C4.375 4.87326 4.39931 4.61806 4.44792 4.375H12.9792L14.3281 11.7031L10.1719 15.8958C11.1927 17.6458 12.4751 19.2865 14.019 20.8177C15.5628 22.349 17.2579 23.6736 19.1042 24.7917L23.3333 20.5625L30.625 22.0208V30.5521C30.3819 30.5764 30.1267 30.5949 29.8594 30.6075C29.592 30.6201 29.3368 30.626 29.0938 30.625ZM8.78646 13.125L11.1927 10.7187L10.5729 7.29167H7.32813C7.44965 8.28819 7.61979 9.27257 7.83854 10.2448C8.05729 11.217 8.37326 12.1771 8.78646 13.125ZM21.8385 26.1771C22.7865 26.5903 23.7528 26.9184 24.7377 27.1615C25.7226 27.4045 26.7128 27.5625 27.7083 27.6354V24.4271L24.2812 23.7344L21.8385 26.1771Z" fill="white"/>
</svg>
